<mxfile host="app.diagrams.net" agent="Mozilla/5.0 (Windows NT 10.0; Win64; x64) AppleWebKit/537.36 (KHTML, like Gecko) Chrome/129.0.0.0 Safari/537.36 Edg/129.0.0.0" version="24.8.6">
  <diagram id="C5RBs43oDa-KdzZeNtuy" name="Page-1">
    <mxGraphModel dx="579" dy="295" grid="1" gridSize="10" guides="1" tooltips="1" connect="1" arrows="1" fold="1" page="1" pageScale="1" pageWidth="827" pageHeight="1169" math="0" shadow="0">
      <root>
        <mxCell id="WIyWlLk6GJQsqaUBKTNV-0" />
        <mxCell id="WIyWlLk6GJQsqaUBKTNV-1" parent="WIyWlLk6GJQsqaUBKTNV-0" />
        <mxCell id="JLc6tSroyL6sAka3HhJL-49" style="edgeStyle=orthogonalEdgeStyle;rounded=0;orthogonalLoop=1;jettySize=auto;html=1;exitX=0.5;exitY=1;exitDx=0;exitDy=0;entryX=0.5;entryY=0;entryDx=0;entryDy=0;" edge="1" parent="WIyWlLk6GJQsqaUBKTNV-1" source="WIyWlLk6GJQsqaUBKTNV-3" target="JLc6tSroyL6sAka3HhJL-5">
          <mxGeometry relative="1" as="geometry" />
        </mxCell>
        <mxCell id="WIyWlLk6GJQsqaUBKTNV-3" value="初始化战场环境" style="rounded=1;whiteSpace=wrap;html=1;fontSize=12;glass=0;strokeWidth=1;shadow=0;" parent="WIyWlLk6GJQsqaUBKTNV-1" vertex="1">
          <mxGeometry x="370" y="30" width="120" height="40" as="geometry" />
        </mxCell>
        <mxCell id="JLc6tSroyL6sAka3HhJL-45" value="" style="edgeStyle=orthogonalEdgeStyle;rounded=0;orthogonalLoop=1;jettySize=auto;html=1;" edge="1" parent="WIyWlLk6GJQsqaUBKTNV-1" source="JLc6tSroyL6sAka3HhJL-5" target="JLc6tSroyL6sAka3HhJL-8">
          <mxGeometry relative="1" as="geometry" />
        </mxCell>
        <mxCell id="JLc6tSroyL6sAka3HhJL-5" value="" style="rounded=0;whiteSpace=wrap;html=1;" vertex="1" parent="WIyWlLk6GJQsqaUBKTNV-1">
          <mxGeometry x="290" y="113" width="280" height="160" as="geometry" />
        </mxCell>
        <mxCell id="JLc6tSroyL6sAka3HhJL-4" value="初始化编队" style="rounded=0;whiteSpace=wrap;html=1;" vertex="1" parent="WIyWlLk6GJQsqaUBKTNV-1">
          <mxGeometry x="290" y="113" width="120" height="40" as="geometry" />
        </mxCell>
        <mxCell id="JLc6tSroyL6sAka3HhJL-6" value="己方编队模式" style="rounded=0;whiteSpace=wrap;html=1;" vertex="1" parent="WIyWlLk6GJQsqaUBKTNV-1">
          <mxGeometry x="310" y="172" width="230" height="40" as="geometry" />
        </mxCell>
        <mxCell id="JLc6tSroyL6sAka3HhJL-7" value="敌方目标数据" style="rounded=0;whiteSpace=wrap;html=1;" vertex="1" parent="WIyWlLk6GJQsqaUBKTNV-1">
          <mxGeometry x="310" y="222" width="230" height="40" as="geometry" />
        </mxCell>
        <mxCell id="JLc6tSroyL6sAka3HhJL-34" style="edgeStyle=orthogonalEdgeStyle;rounded=0;orthogonalLoop=1;jettySize=auto;html=1;exitX=1;exitY=0.5;exitDx=0;exitDy=0;entryX=1;entryY=0.5;entryDx=0;entryDy=0;" edge="1" parent="WIyWlLk6GJQsqaUBKTNV-1" source="JLc6tSroyL6sAka3HhJL-8" target="WIyWlLk6GJQsqaUBKTNV-3">
          <mxGeometry relative="1" as="geometry">
            <mxPoint x="525" y="355" as="sourcePoint" />
            <Array as="points">
              <mxPoint x="700" y="348" />
              <mxPoint x="700" y="50" />
            </Array>
          </mxGeometry>
        </mxCell>
        <mxCell id="JLc6tSroyL6sAka3HhJL-47" style="edgeStyle=orthogonalEdgeStyle;rounded=0;orthogonalLoop=1;jettySize=auto;html=1;exitX=0.5;exitY=1;exitDx=0;exitDy=0;entryX=0.5;entryY=0;entryDx=0;entryDy=0;" edge="1" parent="WIyWlLk6GJQsqaUBKTNV-1" target="JLc6tSroyL6sAka3HhJL-10">
          <mxGeometry relative="1" as="geometry">
            <mxPoint x="430" y="385" as="sourcePoint" />
          </mxGeometry>
        </mxCell>
        <mxCell id="JLc6tSroyL6sAka3HhJL-8" value="目标威胁分析&lt;div&gt;（位置、速度、威胁等级）&lt;/div&gt;" style="rhombus;whiteSpace=wrap;html=1;" vertex="1" parent="WIyWlLk6GJQsqaUBKTNV-1">
          <mxGeometry x="335" y="303" width="190" height="90" as="geometry" />
        </mxCell>
        <mxCell id="JLc6tSroyL6sAka3HhJL-10" value="" style="rounded=0;whiteSpace=wrap;html=1;" vertex="1" parent="WIyWlLk6GJQsqaUBKTNV-1">
          <mxGeometry x="290" y="435" width="280" height="150" as="geometry" />
        </mxCell>
        <mxCell id="JLc6tSroyL6sAka3HhJL-11" value="任务与武器分配" style="rounded=0;whiteSpace=wrap;html=1;" vertex="1" parent="WIyWlLk6GJQsqaUBKTNV-1">
          <mxGeometry x="290" y="435" width="120" height="40" as="geometry" />
        </mxCell>
        <mxCell id="JLc6tSroyL6sAka3HhJL-12" value="根据威胁矩阵分配任务" style="rounded=0;whiteSpace=wrap;html=1;" vertex="1" parent="WIyWlLk6GJQsqaUBKTNV-1">
          <mxGeometry x="310" y="485" width="230" height="40" as="geometry" />
        </mxCell>
        <mxCell id="JLc6tSroyL6sAka3HhJL-13" value="武器选择" style="rounded=0;whiteSpace=wrap;html=1;" vertex="1" parent="WIyWlLk6GJQsqaUBKTNV-1">
          <mxGeometry x="310" y="535" width="100" height="40" as="geometry" />
        </mxCell>
        <mxCell id="JLc6tSroyL6sAka3HhJL-16" value="" style="rounded=0;whiteSpace=wrap;html=1;" vertex="1" parent="WIyWlLk6GJQsqaUBKTNV-1">
          <mxGeometry x="290" y="608" width="280" height="175" as="geometry" />
        </mxCell>
        <mxCell id="JLc6tSroyL6sAka3HhJL-17" value="交战执行" style="rounded=0;whiteSpace=wrap;html=1;" vertex="1" parent="WIyWlLk6GJQsqaUBKTNV-1">
          <mxGeometry x="290" y="608" width="120" height="40" as="geometry" />
        </mxCell>
        <mxCell id="JLc6tSroyL6sAka3HhJL-23" value="雷达、近防" style="rounded=0;whiteSpace=wrap;html=1;" vertex="1" parent="WIyWlLk6GJQsqaUBKTNV-1">
          <mxGeometry x="440" y="535" width="100" height="40" as="geometry" />
        </mxCell>
        <mxCell id="JLc6tSroyL6sAka3HhJL-27" value="" style="rounded=0;whiteSpace=wrap;html=1;" vertex="1" parent="WIyWlLk6GJQsqaUBKTNV-1">
          <mxGeometry x="290" y="813" width="280" height="155" as="geometry" />
        </mxCell>
        <mxCell id="JLc6tSroyL6sAka3HhJL-28" value="战斗结果评估" style="rounded=0;whiteSpace=wrap;html=1;" vertex="1" parent="WIyWlLk6GJQsqaUBKTNV-1">
          <mxGeometry x="290" y="813" width="120" height="40" as="geometry" />
        </mxCell>
        <mxCell id="JLc6tSroyL6sAka3HhJL-29" value="统计战损" style="rounded=0;whiteSpace=wrap;html=1;" vertex="1" parent="WIyWlLk6GJQsqaUBKTNV-1">
          <mxGeometry x="310" y="870.5" width="100" height="40" as="geometry" />
        </mxCell>
        <mxCell id="JLc6tSroyL6sAka3HhJL-30" value="输出战斗日志报告" style="rounded=0;whiteSpace=wrap;html=1;" vertex="1" parent="WIyWlLk6GJQsqaUBKTNV-1">
          <mxGeometry x="310" y="923" width="230" height="40" as="geometry" />
        </mxCell>
        <mxCell id="JLc6tSroyL6sAka3HhJL-31" value="击毁目标、剩余目标、己方损失" style="rounded=0;whiteSpace=wrap;html=1;" vertex="1" parent="WIyWlLk6GJQsqaUBKTNV-1">
          <mxGeometry x="440" y="870.5" width="100" height="40" as="geometry" />
        </mxCell>
        <mxCell id="JLc6tSroyL6sAka3HhJL-36" value="无威胁" style="text;html=1;align=center;verticalAlign=middle;whiteSpace=wrap;rounded=0;" vertex="1" parent="WIyWlLk6GJQsqaUBKTNV-1">
          <mxGeometry x="630" y="172" width="70" height="30" as="geometry" />
        </mxCell>
        <mxCell id="JLc6tSroyL6sAka3HhJL-39" value="有威胁" style="text;html=1;align=center;verticalAlign=middle;whiteSpace=wrap;rounded=0;" vertex="1" parent="WIyWlLk6GJQsqaUBKTNV-1">
          <mxGeometry x="430" y="395" width="70" height="30" as="geometry" />
        </mxCell>
        <mxCell id="JLc6tSroyL6sAka3HhJL-51" value="结束" style="rounded=1;whiteSpace=wrap;html=1;" vertex="1" parent="WIyWlLk6GJQsqaUBKTNV-1">
          <mxGeometry x="367" y="1096" width="120" height="40" as="geometry" />
        </mxCell>
        <mxCell id="JLc6tSroyL6sAka3HhJL-54" value="循环检测" style="html=1;whiteSpace=wrap;aspect=fixed;shape=isoRectangle;" vertex="1" parent="WIyWlLk6GJQsqaUBKTNV-1">
          <mxGeometry x="375.84" y="1007" width="108.33" height="65" as="geometry" />
        </mxCell>
        <mxCell id="JLc6tSroyL6sAka3HhJL-58" value="" style="endArrow=classic;html=1;rounded=0;entryX=0.52;entryY=0.087;entryDx=0;entryDy=0;entryPerimeter=0;" edge="1" parent="WIyWlLk6GJQsqaUBKTNV-1" source="JLc6tSroyL6sAka3HhJL-54" target="JLc6tSroyL6sAka3HhJL-51">
          <mxGeometry width="50" height="50" relative="1" as="geometry">
            <mxPoint x="420" y="1047" as="sourcePoint" />
            <mxPoint x="470" y="997" as="targetPoint" />
          </mxGeometry>
        </mxCell>
        <mxCell id="JLc6tSroyL6sAka3HhJL-59" value="" style="endArrow=classic;html=1;rounded=0;exitX=0.5;exitY=1;exitDx=0;exitDy=0;" edge="1" parent="WIyWlLk6GJQsqaUBKTNV-1" source="JLc6tSroyL6sAka3HhJL-27" target="JLc6tSroyL6sAka3HhJL-54">
          <mxGeometry width="50" height="50" relative="1" as="geometry">
            <mxPoint x="430" y="993" as="sourcePoint" />
            <mxPoint x="480" y="943" as="targetPoint" />
          </mxGeometry>
        </mxCell>
        <mxCell id="JLc6tSroyL6sAka3HhJL-61" value="" style="endArrow=classic;html=1;rounded=0;exitX=0.024;exitY=0.512;exitDx=0;exitDy=0;exitPerimeter=0;" edge="1" parent="WIyWlLk6GJQsqaUBKTNV-1">
          <mxGeometry width="50" height="50" relative="1" as="geometry">
            <mxPoint x="375.8399199999999" y="1040.28" as="sourcePoint" />
            <mxPoint x="430" y="87" as="targetPoint" />
            <Array as="points">
              <mxPoint x="160" y="1040" />
              <mxPoint x="160" y="567" />
              <mxPoint x="160" y="87" />
            </Array>
          </mxGeometry>
        </mxCell>
        <mxCell id="JLc6tSroyL6sAka3HhJL-63" value="调整航向" style="text;html=1;align=center;verticalAlign=middle;whiteSpace=wrap;rounded=0;" vertex="1" parent="WIyWlLk6GJQsqaUBKTNV-1">
          <mxGeometry x="410" y="663" width="60" height="30" as="geometry" />
        </mxCell>
        <mxCell id="JLc6tSroyL6sAka3HhJL-64" value="发射导弹" style="text;html=1;align=center;verticalAlign=middle;whiteSpace=wrap;rounded=0;" vertex="1" parent="WIyWlLk6GJQsqaUBKTNV-1">
          <mxGeometry x="350" y="713" width="60" height="30" as="geometry" />
        </mxCell>
        <mxCell id="JLc6tSroyL6sAka3HhJL-65" value="拦截执行" style="text;html=1;align=center;verticalAlign=middle;whiteSpace=wrap;rounded=0;" vertex="1" parent="WIyWlLk6GJQsqaUBKTNV-1">
          <mxGeometry x="470" y="713" width="60" height="30" as="geometry" />
        </mxCell>
        <mxCell id="JLc6tSroyL6sAka3HhJL-74" value="" style="endArrow=classic;startArrow=classic;html=1;rounded=0;exitX=0.5;exitY=0;exitDx=0;exitDy=0;entryX=0;entryY=0.5;entryDx=0;entryDy=0;" edge="1" parent="WIyWlLk6GJQsqaUBKTNV-1" source="JLc6tSroyL6sAka3HhJL-64" target="JLc6tSroyL6sAka3HhJL-63">
          <mxGeometry width="50" height="50" relative="1" as="geometry">
            <mxPoint x="400" y="703" as="sourcePoint" />
            <mxPoint x="450" y="653" as="targetPoint" />
          </mxGeometry>
        </mxCell>
        <mxCell id="JLc6tSroyL6sAka3HhJL-75" value="" style="endArrow=classic;startArrow=classic;html=1;rounded=0;entryX=0;entryY=0.5;entryDx=0;entryDy=0;" edge="1" parent="WIyWlLk6GJQsqaUBKTNV-1" source="JLc6tSroyL6sAka3HhJL-64" target="JLc6tSroyL6sAka3HhJL-65">
          <mxGeometry width="50" height="50" relative="1" as="geometry">
            <mxPoint x="400" y="703" as="sourcePoint" />
            <mxPoint x="450" y="653" as="targetPoint" />
          </mxGeometry>
        </mxCell>
        <mxCell id="JLc6tSroyL6sAka3HhJL-76" value="" style="endArrow=classic;startArrow=classic;html=1;rounded=0;exitX=0.5;exitY=0;exitDx=0;exitDy=0;entryX=1;entryY=0.5;entryDx=0;entryDy=0;" edge="1" parent="WIyWlLk6GJQsqaUBKTNV-1" source="JLc6tSroyL6sAka3HhJL-65" target="JLc6tSroyL6sAka3HhJL-63">
          <mxGeometry width="50" height="50" relative="1" as="geometry">
            <mxPoint x="500" y="720.5" as="sourcePoint" />
            <mxPoint x="550" y="670.5" as="targetPoint" />
          </mxGeometry>
        </mxCell>
        <mxCell id="JLc6tSroyL6sAka3HhJL-77" value="" style="endArrow=classic;html=1;rounded=0;entryX=0.5;entryY=0;entryDx=0;entryDy=0;exitX=0.5;exitY=1;exitDx=0;exitDy=0;" edge="1" parent="WIyWlLk6GJQsqaUBKTNV-1" source="JLc6tSroyL6sAka3HhJL-16" target="JLc6tSroyL6sAka3HhJL-27">
          <mxGeometry width="50" height="50" relative="1" as="geometry">
            <mxPoint x="400" y="900" as="sourcePoint" />
            <mxPoint x="450" y="850" as="targetPoint" />
          </mxGeometry>
        </mxCell>
        <mxCell id="JLc6tSroyL6sAka3HhJL-78" value="" style="endArrow=classic;html=1;rounded=0;entryX=0.5;entryY=0;entryDx=0;entryDy=0;exitX=0.5;exitY=1;exitDx=0;exitDy=0;" edge="1" parent="WIyWlLk6GJQsqaUBKTNV-1" source="JLc6tSroyL6sAka3HhJL-10" target="JLc6tSroyL6sAka3HhJL-16">
          <mxGeometry width="50" height="50" relative="1" as="geometry">
            <mxPoint x="430" y="600" as="sourcePoint" />
            <mxPoint x="480" y="550" as="targetPoint" />
          </mxGeometry>
        </mxCell>
      </root>
    </mxGraphModel>
  </diagram>
</mxfile>
